<?xml version="1.0" encoding="UTF-8"?>
<svg id="Layer_1" data-name="Layer 1" xmlns="http://www.w3.org/2000/svg" viewBox="0 0 200 200">
  <defs>
    <style>
      .cls-1 {
        fill: #74af27;
      }
    </style>
  </defs>
  <path class="cls-1" d="M183.68,76.92h-7.47c-3.65,0-6.9-2.23-8.3-5.59-.05-.12-.1-.25-.15-.37-1.44-3.4-.74-7.32,1.87-9.94l5.28-5.28c3.5-3.5,3.5-9.18,0-12.68l-18.79-18.79c-3.5-3.5-9.18-3.5-12.68,0l-4.78,4.78c-2.66,2.66-6.68,3.34-10.1,1.79-.29-.13-.57-.26-.86-.38-3.29-1.43-5.43-4.65-5.43-8.23v-6.74c0-4.95-4.01-8.97-8.97-8.97h-26.58c-4.95,0-8.97,4.01-8.97,8.97v4.36c0,3.85-2.48,7.21-6.11,8.48-.82.29-1.64.59-2.45.9-3.33,1.3-7.11.54-9.64-1.99l-2.98-2.98c-3.5-3.5-9.18-3.5-12.68,0l-18.79,18.79c-3.5,3.5-3.5,9.18,0,12.68l1.05,1.05c2.72,2.72,3.49,6.88,1.79,10.33-.68,1.38-1.31,2.79-1.91,4.21-1.4,3.37-4.65,5.59-8.3,5.59h-1.41c-4.95,0-8.97,4.01-8.97,8.97v26.58c0,4.95,4.01,8.97,8.97,8.97h.04c3.79,0,7.14,2.39,8.44,5.95.64,1.75,1.34,3.46,2.1,5.14,1.54,3.42.85,7.43-1.8,10.08-3.5,3.5-3.5,9.18,0,12.68l18.79,18.79c3.5,3.5,9.18,3.5,12.68,0l.5-.5c2.61-2.61,6.53-3.32,9.92-1.87,1.53.65,3.08,1.26,4.66,1.81,3.63,1.27,6.1,4.65,6.1,8.49v.85c0,4.95,4.01,8.97,8.97,8.97h26.58c4.95,0,8.97-4.01,8.97-8.97v-3.23c0-3.58,2.14-6.8,5.42-8.22,1.01-.44,2.01-.9,3-1.39,3.47-1.69,7.63-1.06,10.36,1.67l2.4,2.4c3.5,3.5,9.18,3.5,12.68,0l18.79-18.79c3.5-3.5,3.5-9.18,0-12.68l-4.27-4.27c-2.51-2.51-3.29-6.27-2.01-9.59.17-.45.35-.91.51-1.36,1.3-3.56,4.65-5.96,8.44-5.96h6.1c4.95,0,8.97-4.01,8.97-8.97v-26.58c0-4.95-4.01-8.97-8.97-8.97ZM100,132.06c-18.16,0-32.89-14.73-32.89-32.89s14.73-32.89,32.89-32.89,32.89,14.73,32.89,32.89-14.73,32.89-32.89,32.89Z"/>
</svg>