<?xml version="1.0" encoding="UTF-8"?>
<svg id="Layer_1" data-name="Layer 1" xmlns="http://www.w3.org/2000/svg" viewBox="0 0 200 200">
  <defs>
    <style>
      .cls-1 {
        fill: #74af27;
      }
    </style>
  </defs>
  <circle class="cls-1" cx="136.7" cy="55.58" r="30.06"/>
  <circle class="cls-1" cx="65.72" cy="45.58" r="30.06"/>
  <path class="cls-1" d="M65.72,193.03c7.64,0,14.92.35,21.59.35,21.01,0,35.83-3.5,35.83-32.56,0-38.27-25.71-69.3-57.42-69.3S8.3,122.55,8.3,160.83c0,29.06,14.82,32.56,35.83,32.56,6.66,0,13.95-.35,21.59-.35Z"/>
  <path class="cls-1" d="M136.7,100c-7.52,0-14.68,1.64-21.26,4.55,14.29,14.76,23.29,35.71,23.29,58.99,0,13.29-3.03,22.73-7.62,29.58,1.84-.03,3.7-.05,5.59-.05,31.71,0,57.42,5.57,57.42-29.52s-25.71-63.54-57.42-63.54Z"/>
</svg>