<?xml version="1.0" encoding="UTF-8"?>
<svg id="Layer_1" data-name="Layer 1" xmlns="http://www.w3.org/2000/svg" viewBox="0 0 224.46 45.09">
  <defs>
    <style>
      .cls-1 {
        fill: #fff;
      }

      .cls-2 {
        fill: #74af27;
      }
    </style>
  </defs>
  <path class="cls-1" d="M61.53,34.06V9.04h14.66v4.5h-9.65v5.61h9.47v4.36h-9.47v6.04h9.72v4.5h-14.73Z"/>
  <path class="cls-1" d="M107.89,34.06c-1.84,0-3.24-.45-4.22-1.36-.98-.9-1.47-2.37-1.47-4.4v-8.72h-2.61v-4.11h2.61v-3.75l4.83-.5v4.25h3.93v4.11h-3.93v8.47c0,1.14.5,1.71,1.5,1.71h2v4.29h-2.65Z"/>
  <path class="cls-1" d="M113.07,34.06V15.47h4.68v3.54c.31-1.33.94-2.35,1.89-3.06.95-.7,2.24-1.01,3.86-.91v4.54h-.68c-1.38,0-2.55.44-3.5,1.32-.95.88-1.43,2.1-1.43,3.65v9.51h-4.83Z"/>
  <path class="cls-1" d="M133.2,34.53c-1.69,0-3.24-.44-4.63-1.3-1.39-.87-2.5-2.04-3.33-3.5s-1.23-3.09-1.23-4.88c0-1.34.24-2.59.71-3.77s1.13-2.22,1.97-3.11c.83-.89,1.8-1.6,2.91-2.11,1.11-.51,2.31-.77,3.59-.77,1.62,0,2.88.3,3.79.91.91.61,1.61,1.41,2.11,2.41v-2.93h4.79v18.59h-4.68v-3.04c-.5,1.05-1.21,1.89-2.13,2.54-.92.64-2.21.96-3.88.96ZM133.98,30.17c1.07,0,2-.24,2.77-.73s1.38-1.14,1.81-1.95.64-1.69.64-2.64-.21-1.87-.64-2.68-1.03-1.47-1.81-1.97-1.7-.75-2.77-.75-1.92.24-2.7.73c-.78.49-1.38,1.14-1.81,1.95s-.64,1.7-.64,2.68.21,1.81.64,2.63,1.03,1.48,1.81,1.98c.77.5,1.67.75,2.7.75Z"/>
  <path class="cls-1" d="M150.29,34.06V13.54h-7.15v-4.5h19.3v4.5h-7.15v20.52h-5Z"/>
  <path class="cls-1" d="M167.3,13.94c-.81,0-1.5-.28-2.06-.84-.56-.56-.84-1.23-.84-2.02s.28-1.42.84-1.98c.56-.56,1.25-.84,2.06-.84s1.52.28,2.07.84c.55.56.82,1.22.82,1.98,0,.81-.27,1.49-.82,2.04-.55.55-1.24.82-2.07.82ZM164.91,34.06V15.47h4.83v18.59h-4.83Z"/>
  <path class="cls-1" d="M173.09,34.06V15.47h4.75v2.72c.98-2.1,2.87-3.14,5.68-3.14,1.31,0,2.49.3,3.54.91,1.05.61,1.88,1.47,2.5,2.59.62-1.12,1.41-1.98,2.38-2.59.96-.61,2.27-.91,3.91-.91,1.33,0,2.54.31,3.61.93,1.07.62,1.92,1.5,2.54,2.64.62,1.14.93,2.5.93,4.07v11.37h-4.83v-10.19c0-1.62-.35-2.79-1.04-3.52-.69-.73-1.58-1.09-2.68-1.09s-2.03.32-2.73.97c-.7.64-1.05,1.86-1.05,3.64v10.19h-4.83v-10.19c0-1.62-.37-2.79-1.11-3.52-.74-.73-1.7-1.09-2.9-1.09-1.03,0-1.92.37-2.7,1.09s-1.16,1.9-1.16,3.52v10.19h-4.83Z"/>
  <path class="cls-1" d="M215.02,34.53c-1.91,0-3.59-.44-5.04-1.32-1.45-.88-2.58-2.05-3.38-3.52-.8-1.47-1.2-3.09-1.2-4.88s.42-3.43,1.25-4.91c.83-1.49,1.97-2.68,3.41-3.56,1.44-.88,3.09-1.32,4.95-1.32s3.5.44,4.92,1.32c1.42.88,2.53,2.07,3.32,3.56.8,1.49,1.2,3.13,1.2,4.91,0,.26-.01.54-.04.82-.02.29-.06.58-.11.89h-13.91c.26,1.1.79,1.99,1.59,2.68.8.69,1.81,1.04,3.02,1.04,1.05,0,1.96-.24,2.74-.71.77-.48,1.38-1.07,1.8-1.79l3.75,2.82c-.74,1.17-1.85,2.12-3.33,2.86s-3.13,1.11-4.97,1.11ZM214.95,19.15c-1.14,0-2.12.35-2.93,1.04s-1.35,1.6-1.61,2.72h9.19c-.26-1.02-.8-1.91-1.63-2.64s-1.83-1.11-3.02-1.11Z"/>
  <rect class="cls-2" x="15.11" y="-1.9" width="14.88" height="48.89" transform="translate(22.54 -9.34) rotate(45)"/>
  <rect class="cls-2" x="15.11" y="-1.9" width="14.88" height="48.89" transform="translate(54.43 22.54) rotate(135)"/>
  <rect class="cls-1" x="86.3" y="13.85" width="4.58" height="22.12" transform="translate(8.33 69.94) rotate(-45)"/>
  <rect class="cls-1" x="77.52" y="22.62" width="22.12" height="4.58" transform="translate(8.33 69.94) rotate(-45)"/>
</svg>