<?xml version="1.0" encoding="UTF-8"?>
<svg id="Layer_1" data-name="Layer 1" xmlns="http://www.w3.org/2000/svg" viewBox="0 0 200 200">
  <defs>
    <style>
      .cls-1 {
        fill: #74af27;
      }
    </style>
  </defs>
  <g>
    <path class="cls-1" d="M16.96,82.4v79.14c0,17.59,14.26,31.85,31.85,31.85h104.71c17.59,0,31.85-14.26,31.85-31.85v-79.14H16.96ZM68.33,164.27c0,4-3.24,7.24-7.24,7.24h-12.63c-4,0-7.24-3.24-7.24-7.24v-12.63c0-4,3.24-7.24,7.24-7.24h12.63c4,0,7.24,3.24,7.24,7.24v12.63ZM68.33,120.1c0,4-3.24,7.24-7.24,7.24h-12.63c-4,0-7.24-3.24-7.24-7.24v-12.63c0-4,3.24-7.24,7.24-7.24h12.63c4,0,7.24,3.24,7.24,7.24v12.63ZM112.87,164.27c0,4-3.24,7.24-7.24,7.24h-12.63c-4,0-7.24-3.24-7.24-7.24v-12.63c0-4,3.24-7.24,7.24-7.24h12.63c4,0,7.24,3.24,7.24,7.24v12.63ZM112.87,120.1c0,4-3.24,7.24-7.24,7.24h-12.63c-4,0-7.24-3.24-7.24-7.24v-12.63c0-4,3.24-7.24,7.24-7.24h12.63c4,0,7.24,3.24,7.24,7.24v12.63ZM157.04,164.27c0,4-3.24,7.24-7.24,7.24h-12.63c-4,0-7.24-3.24-7.24-7.24v-12.63c0-4,3.24-7.24,7.24-7.24h12.63c4,0,7.24,3.24,7.24,7.24v12.63ZM157.04,120.1c0,4-3.24,7.24-7.24,7.24h-12.63c-4,0-7.24-3.24-7.24-7.24v-12.63c0-4,3.24-7.24,7.24-7.24h12.63c4,0,7.24,3.24,7.24,7.24v12.63Z"/>
    <path class="cls-1" d="M185.37,65.28v-8.46c0-17.59-14.26-31.85-31.85-31.85H48.81c-17.59,0-31.85,14.26-31.85,31.85v8.46h168.41Z"/>
  </g>
  <rect class="cls-1" x="47.38" y="5.19" width="20.27" height="39.09" rx="1.79" ry="1.79"/>
  <rect class="cls-1" x="132.79" y="5.19" width="20.27" height="39.09" rx="1.79" ry="1.79"/>
</svg>