<?xml version="1.0" encoding="UTF-8"?>
<svg id="Layer_1" data-name="Layer 1" xmlns="http://www.w3.org/2000/svg" viewBox="0 0 200 200">
  <defs>
    <style>
      .cls-1 {
        fill: #74af27;
      }
    </style>
  </defs>
  <path class="cls-1" d="M134.16,52.58H62.51c-18.39,0-33.3,14.91-33.3,33.3v71.64c0,18.39,14.91,33.3,33.3,33.3h18.67v-37.86c0-9.47,7.68-17.15,17.15-17.15h0c9.47,0,17.15,7.68,17.15,17.15v37.86h18.67c18.39,0,33.3-14.91,33.3-33.3v-71.64c0-18.39-14.91-33.3-33.3-33.3Z"/>
  <path class="cls-1" d="M76.51,13.5l-57.15,50.89c-22.52,20.05-8.34,57.32,21.82,57.32h114.3c30.16,0,44.34-37.26,21.82-57.32L120.16,13.5c-12.44-11.08-31.2-11.08-43.64,0Z"/>
</svg>