<?xml version="1.0" encoding="UTF-8"?>
<svg id="Layer_1" data-name="Layer 1" xmlns="http://www.w3.org/2000/svg" viewBox="0 0 222.63 38.57">
  <defs>
    <style>
      .cls-1 {
        fill: #fff;
      }
    </style>
  </defs>
  <g>
    <path class="cls-1" d="M52.17,32.8V6.3h15.52v4.77h-10.22v5.94h10.03v4.62h-10.03v6.4h10.3v4.77h-15.6Z"/>
    <path class="cls-1" d="M69.02,32.8l7.38-9.84-7-9.84h6.1l4.01,6.25,4.17-6.25h5.98l-7,9.92,7.38,9.77h-6.21l-4.28-6.29-4.43,6.29h-6.1Z"/>
    <path class="cls-1" d="M99.16,32.8c-1.94,0-3.43-.48-4.47-1.44s-1.55-2.51-1.55-4.66v-9.24h-2.76v-4.35h2.76v-3.98l5.11-.53v4.51h4.17v4.35h-4.17v8.97c0,1.21.53,1.82,1.59,1.82h2.12v4.54h-2.8Z"/>
    <path class="cls-1" d="M104.65,32.8V13.11h4.96v3.75c.33-1.41,1-2.49,2.01-3.24,1.01-.74,2.37-1.07,4.09-.97v4.81h-.72c-1.46,0-2.7.47-3.71,1.4-1.01.93-1.51,2.22-1.51,3.86v10.07h-5.11Z"/>
    <path class="cls-1" d="M125.97,33.29c-1.79,0-3.43-.46-4.9-1.38s-2.65-2.16-3.52-3.71-1.31-3.28-1.31-5.17c0-1.41.25-2.75.76-3.99.5-1.25,1.2-2.35,2.08-3.29.88-.95,1.91-1.69,3.09-2.23s2.44-.81,3.8-.81c1.72,0,3.05.32,4.01.97.96.64,1.7,1.5,2.23,2.56v-3.1h5.07v19.69h-4.96v-3.22c-.53,1.11-1.28,2.01-2.25,2.69s-2.34,1.02-4.11,1.02ZM126.8,28.68c1.14,0,2.11-.26,2.93-.78s1.46-1.21,1.91-2.06c.45-.86.68-1.79.68-2.8s-.23-1.98-.68-2.84c-.46-.86-1.09-1.55-1.91-2.08s-1.8-.8-2.93-.8-2.04.26-2.86.78c-.82.52-1.46,1.21-1.91,2.06-.45.86-.68,1.81-.68,2.84s.23,1.91.68,2.78c.45.87,1.09,1.57,1.91,2.1.82.53,1.77.8,2.86.8Z"/>
    <path class="cls-1" d="M144.06,32.8V11.07h-7.57v-4.77h20.45v4.77h-7.57v21.73h-5.3Z"/>
    <path class="cls-1" d="M162.09,11.48c-.86,0-1.58-.3-2.18-.89-.59-.59-.89-1.31-.89-2.14s.3-1.51.89-2.1c.59-.59,1.32-.89,2.18-.89s1.62.3,2.2.89c.58.59.87,1.29.87,2.1,0,.86-.29,1.58-.87,2.16s-1.31.87-2.2.87ZM159.55,32.8V13.11h5.11v19.69h-5.11Z"/>
    <path class="cls-1" d="M168.22,32.8V13.11h5.04v2.88c1.04-2.22,3.04-3.33,6.02-3.33,1.39,0,2.64.32,3.75.97,1.11.64,1.99,1.56,2.65,2.75.66-1.19,1.5-2.1,2.52-2.75s2.4-.97,4.15-.97c1.41,0,2.69.33,3.82.98,1.14.66,2.03,1.59,2.69,2.8.66,1.21.98,2.65.98,4.32v12.04h-5.11v-10.79c0-1.72-.37-2.96-1.1-3.73-.73-.77-1.68-1.15-2.84-1.15s-2.15.34-2.9,1.02c-.75.68-1.12,1.97-1.12,3.86v10.79h-5.11v-10.79c0-1.72-.39-2.96-1.17-3.73-.78-.77-1.81-1.15-3.07-1.15-1.09,0-2.04.38-2.86,1.15-.82.77-1.23,2.01-1.23,3.73v10.79h-5.11Z"/>
    <path class="cls-1" d="M212.64,33.29c-2.02,0-3.8-.47-5.34-1.4-1.54-.93-2.73-2.18-3.58-3.73s-1.27-3.28-1.27-5.17.44-3.63,1.33-5.21c.88-1.58,2.09-2.83,3.62-3.77,1.53-.93,3.28-1.4,5.25-1.4s3.7.47,5.21,1.4c1.5.93,2.68,2.19,3.52,3.77.85,1.58,1.27,3.31,1.27,5.21,0,.28-.01.57-.04.87-.03.3-.06.62-.11.95h-14.73c.28,1.16.84,2.11,1.68,2.84s1.91,1.1,3.2,1.1c1.11,0,2.08-.25,2.9-.76s1.46-1.14,1.91-1.89l3.98,2.99c-.78,1.24-1.96,2.25-3.52,3.03s-3.32,1.17-5.26,1.17ZM212.56,17.01c-1.21,0-2.25.37-3.1,1.1-.86.73-1.43,1.69-1.7,2.88h9.73c-.28-1.09-.85-2.02-1.72-2.8-.87-.78-1.94-1.17-3.2-1.17Z"/>
  </g>
  <path class="cls-1" d="M36.63,10.92l-4.92,4.92c1.2,4.34.11,9.19-3.3,12.59-4.27,4.27-10.79,4.91-15.76,1.96L30.37,12.67s0,0,0,0l4.58-4.58c-.61-.86-1.28-1.69-2.05-2.45C25.39-1.88,13.15-1.88,5.63,5.64-.32,11.59-1.54,20.47,1.91,27.65l4.92-4.92c-1.2-4.34-.11-9.19,3.3-12.6,4.27-4.27,10.79-4.91,15.76-1.96L8.17,25.89s0,0,0,0l-4.58,4.58c.61.86,1.28,1.69,2.05,2.45,7.52,7.52,19.76,7.52,27.29,0,5.94-5.94,7.17-14.83,3.72-22.01Z"/>
</svg>